<svg width="30" height="30" viewBox="0 0 30 30" fill="none" xmlns="http://www.w3.org/2000/svg">
<path d="M13.4972 3.58217C13.9102 3.21112 14.4458 3.00586 15.001 3.00586C15.5562 3.00586 16.0918 3.21112 16.5047 3.58217L24.7547 10.9952C24.9893 11.2061 25.1769 11.464 25.3053 11.7522C25.4338 12.0403 25.5002 12.3522 25.5002 12.6677V23.2502C25.5002 23.8469 25.2632 24.4192 24.8412 24.8412C24.4193 25.2631 23.847 25.5002 23.2502 25.5002H19.5002C18.9035 25.5002 18.3312 25.2631 17.9093 24.8412C17.4873 24.4192 17.2502 23.8469 17.2502 23.2502V18.0002C17.2502 17.8013 17.1712 17.6105 17.0306 17.4698C16.8899 17.3292 16.6992 17.2502 16.5002 17.2502H13.5002C13.3013 17.2502 13.1106 17.3292 12.9699 17.4698C12.8293 17.6105 12.7502 17.8013 12.7502 18.0002V23.2502C12.7502 23.8469 12.5132 24.4192 12.0912 24.8412C11.6693 25.2631 11.097 25.5002 10.5002 25.5002H6.75024C6.15351 25.5002 5.58121 25.2631 5.15925 24.8412C4.7373 24.4192 4.50024 23.8469 4.50024 23.2502V12.6677C4.50024 12.0302 4.77024 11.4227 5.24724 10.9952L13.4972 3.58217ZM15.5012 4.69817C15.3636 4.57463 15.1852 4.50629 15.0002 4.50629C14.8153 4.50629 14.6369 4.57463 14.4992 4.69817L6.24924 12.1112C6.17109 12.1813 6.10854 12.2671 6.06565 12.363C6.02275 12.4588 6.00047 12.5626 6.00024 12.6677V23.2502C6.00024 23.4491 6.07926 23.6399 6.21991 23.7805C6.36057 23.9212 6.55133 24.0002 6.75024 24.0002H10.5002C10.6992 24.0002 10.8899 23.9212 11.0306 23.7805C11.1712 23.6399 11.2502 23.4491 11.2502 23.2502V18.0002C11.2502 17.4034 11.4873 16.8311 11.9093 16.4092C12.3312 15.9872 12.9035 15.7502 13.5002 15.7502H16.5002C17.097 15.7502 17.6693 15.9872 18.0912 16.4092C18.5132 16.8311 18.7502 17.4034 18.7502 18.0002V23.2502C18.7502 23.4491 18.8293 23.6399 18.9699 23.7805C19.1106 23.9212 19.3013 24.0002 19.5002 24.0002H23.2502C23.4492 24.0002 23.6399 23.9212 23.7806 23.7805C23.9212 23.6399 24.0002 23.4491 24.0002 23.2502V12.6677C24 12.5626 23.9777 12.4588 23.9348 12.363C23.8919 12.2671 23.8294 12.1813 23.7512 12.1112L15.5012 4.69817Z" fill="#444A6D"/>
</svg>
