<svg width="48" height="48" viewBox="0 0 48 48" fill="none" xmlns="http://www.w3.org/2000/svg">
<rect width="48" height="48" rx="8" fill="white"/>
<path d="M34 22V14.1863C34.0001 14.0876 33.9807 13.9899 33.9429 13.8987C33.9052 13.8075 33.8498 13.7247 33.78 13.655L29.845 9.72C29.7045 9.57931 29.5138 9.50018 29.315 9.5H14.75C14.5511 9.5 14.3603 9.57902 14.2197 9.71967C14.079 9.86032 14 10.0511 14 10.25V33.75C14 33.9489 14.079 34.1397 14.2197 34.2803C14.3603 34.421 14.5511 34.5 14.75 34.5H22.75" stroke="#444A6D" stroke-width="1.875" stroke-linecap="round" stroke-linejoin="round"/>
<path d="M19 24.5H22.75M19 19.5H29H19ZM19 14.5H24H19Z" stroke="#444A6D" stroke-width="1.875" stroke-linecap="round" stroke-linejoin="round"/>
<path d="M34.625 32.625L36.5 34.5" stroke="#444A6D" stroke-width="1.875" stroke-linecap="round" stroke-linejoin="round"/>
<path d="M27.75 29.5C27.75 30.4946 28.1451 31.4484 28.8483 32.1517C29.5516 32.8549 30.5054 33.25 31.5 33.25C32.4946 33.25 33.4484 32.8549 34.1517 32.1517C34.8549 31.4484 35.25 30.4946 35.25 29.5C35.25 28.5054 34.8549 27.5516 34.1517 26.8483C33.4484 26.1451 32.4946 25.75 31.5 25.75C30.5054 25.75 29.5516 26.1451 28.8483 26.8483C28.1451 27.5516 27.75 28.5054 27.75 29.5Z" stroke="#444A6D" stroke-width="1.875" stroke-linecap="round" stroke-linejoin="round"/>
<path d="M29 13.7502V9.94269C29.0002 9.85528 29.0262 9.76989 29.0748 9.69726C29.1235 9.62464 29.1925 9.56804 29.2733 9.53462C29.354 9.50119 29.4429 9.49243 29.5286 9.50944C29.6143 9.52645 29.6931 9.56846 29.755 9.63019L33.87 13.7452C33.9323 13.8068 33.9749 13.8857 33.9923 13.9716C34.0096 14.0575 34.001 14.1467 33.9674 14.2277C33.9339 14.3087 33.877 14.3779 33.804 14.4264C33.731 14.475 33.6452 14.5006 33.5575 14.5002H29.75C29.5511 14.5002 29.3603 14.4212 29.2197 14.2805C29.079 14.1399 29 13.9491 29 13.7502V13.7502Z" fill="#444A6D" stroke="#444A6D" stroke-width="1.875" stroke-linecap="round" stroke-linejoin="round"/>
</svg>
