<svg width="30" height="30" viewBox="0 0 30 30" fill="none" xmlns="http://www.w3.org/2000/svg">
<path d="M15 5C14.6685 5 14.3505 5.1317 14.1161 5.36612C13.8817 5.60054 13.75 5.91848 13.75 6.25V25C13.75 25.3315 13.8817 25.6495 14.1161 25.8839C14.3505 26.1183 14.6685 26.25 15 26.25C15.3315 26.25 15.6495 26.1183 15.8839 25.8839C16.1183 25.6495 16.25 25.3315 16.25 25V6.25C16.25 5.91848 16.1183 5.60054 15.8839 5.36612C15.6495 5.1317 15.3315 5 15 5ZM23.75 15C23.4185 15 23.1005 15.1317 22.8661 15.3661C22.6317 15.6005 22.5 15.9185 22.5 16.25V25C22.5 25.3315 22.6317 25.6495 22.8661 25.8839C23.1005 26.1183 23.4185 26.25 23.75 26.25C24.0815 26.25 24.3995 26.1183 24.6339 25.8839C24.8683 25.6495 25 25.3315 25 25V16.25C25 15.9185 24.8683 15.6005 24.6339 15.3661C24.3995 15.1317 24.0815 15 23.75 15ZM6.25 10C5.91848 10 5.60054 10.1317 5.36612 10.3661C5.1317 10.6005 5 10.9185 5 11.25V25C5 25.3315 5.1317 25.6495 5.36612 25.8839C5.60054 26.1183 5.91848 26.25 6.25 26.25C6.58152 26.25 6.89946 26.1183 7.13388 25.8839C7.3683 25.6495 7.5 25.3315 7.5 25V11.25C7.5 10.9185 7.3683 10.6005 7.13388 10.3661C6.89946 10.1317 6.58152 10 6.25 10Z" fill="#444A6D"/>
</svg>
