<svg width="30" height="30" viewBox="0 0 30 30" fill="none" xmlns="http://www.w3.org/2000/svg">
<path d="M25 13.75C25 11.0978 23.9464 8.5543 22.0711 6.67893C20.1957 4.80357 17.6522 3.75 15 3.75C12.3478 3.75 9.8043 4.80357 7.92893 6.67893C6.05357 8.5543 5 11.0978 5 13.75" stroke="#444A6D" stroke-width="1.875" stroke-linecap="round" stroke-linejoin="round"/>
<path d="M2.5 19.2977V16.9527C2.50008 16.3952 2.6865 15.8537 3.02963 15.4143C3.37276 14.975 3.8529 14.6629 4.39375 14.5277L6.56875 13.9827C6.67927 13.9552 6.79461 13.9532 6.90601 13.9769C7.01742 14.0005 7.12196 14.0493 7.21172 14.1194C7.30147 14.1895 7.37408 14.2792 7.42403 14.3815C7.47398 14.4839 7.49996 14.5963 7.5 14.7102V21.5389C7.5002 21.6531 7.47434 21.7657 7.4244 21.8684C7.37446 21.971 7.30176 22.0609 7.21183 22.1312C7.12189 22.2015 7.01711 22.2503 6.90545 22.2739C6.79379 22.2976 6.67821 22.2955 6.5675 22.2677L4.3925 21.7239C3.85188 21.5885 3.37202 21.2763 3.02914 20.8369C2.68626 20.3976 2.50001 19.8563 2.5 19.2989V19.2977Z" stroke="#444A6D" stroke-width="1.875"/>
<path d="M27.5 19.2977V16.9527C27.4999 16.3952 27.3135 15.8537 26.9704 15.4143C26.6272 14.975 26.1471 14.6629 25.6063 14.5277L23.4313 13.9827C23.3207 13.9552 23.2054 13.9532 23.094 13.9769C22.9826 14.0005 22.878 14.0493 22.7883 14.1194C22.6985 14.1895 22.6259 14.2792 22.576 14.3815C22.526 14.4839 22.5 14.5963 22.5 14.7102V21.5389C22.4999 21.6529 22.5257 21.7655 22.5756 21.868C22.6254 21.9705 22.698 22.0603 22.7878 22.1306C22.8776 22.2008 22.9822 22.2497 23.0937 22.2734C23.2052 22.2972 23.3206 22.2952 23.4313 22.2677L25.6063 21.7239C26.1471 21.5887 26.6272 21.2767 26.9704 20.8373C27.3135 20.3979 27.4999 19.8564 27.5 19.2989V19.2977Z" stroke="#444A6D" stroke-width="1.875"/>
<path d="M25 22.5V23.125C25 23.788 24.7366 24.4239 24.2678 24.8928C23.7989 25.3616 23.163 25.625 22.5 25.625H18.125" stroke="#444A6D" stroke-width="1.875"/>
<path d="M16.875 27.5H13.125C12.6277 27.5 12.1508 27.3025 11.7992 26.9508C11.4475 26.5992 11.25 26.1223 11.25 25.625C11.25 25.1277 11.4475 24.6508 11.7992 24.2992C12.1508 23.9475 12.6277 23.75 13.125 23.75H16.875C17.3723 23.75 17.8492 23.9475 18.2008 24.2992C18.5525 24.6508 18.75 25.1277 18.75 25.625C18.75 26.1223 18.5525 26.5992 18.2008 26.9508C17.8492 27.3025 17.3723 27.5 16.875 27.5Z" stroke="#444A6D" stroke-width="1.875"/>
</svg>
